<?xml version="1.0" encoding="UTF-8" standalone="no"?>
<!DOCTYPE svg PUBLIC "-//W3C//DTD SVG 1.1//EN"
 "http://www.w3.org/Graphics/SVG/1.1/DTD/svg11.dtd">
<!-- Generated by graphviz version 2.43.0 (0)
 -->
<!-- Title: %3 Pages: 1 -->
<svg width="838pt" height="963pt"
 viewBox="0.00 0.00 837.50 963.00" xmlns="http://www.w3.org/2000/svg" xmlns:xlink="http://www.w3.org/1999/xlink">
<g id="graph0" class="graph" transform="scale(1 1) rotate(0) translate(144 819)">
<title>%3</title>
<polygon fill="white" stroke="transparent" points="-144,144 -144,-819 693.5,-819 693.5,144 -144,144"/>
<g id="clust1" class="cluster">
<title>cluster_Namespace: dev</title>
<g id="a_clust1"><a xlink:title="Namespace: dev">
<path fill="white" stroke="black" stroke-dasharray="5,2" d="M147.5,-8C147.5,-8 529.5,-8 529.5,-8 535.5,-8 541.5,-14 541.5,-20 541.5,-20 541.5,-655 541.5,-655 541.5,-661 535.5,-667 529.5,-667 529.5,-667 147.5,-667 147.5,-667 141.5,-667 135.5,-661 135.5,-655 135.5,-655 135.5,-20 135.5,-20 135.5,-14 141.5,-8 147.5,-8"/>
<image xlink:href="https://raw.githubusercontent.com/mingrammer/diagrams/refs/heads/master/resources/k8s/group/ns.png" width="60px" height="60px" preserveAspectRatio="xMinYMin meet" x="147.5" y="-658.5"/>
<text text-anchor="start" x="167" y="-582.9" font-family="Sans-Serif" font-size="12.00" fill="#2d3436">dev</text>
</a>
</g>
</g>
<g id="clust2" class="cluster">
<title>cluster_Application: auth&#45;svc</title>
<g id="a_clust2"><a xlink:title="Application: auth&#45;svc">
<path fill="#ece8f6" stroke="#aeb6be" d="M283.5,-199C283.5,-199 393.5,-199 393.5,-199 399.5,-199 405.5,-205 405.5,-211 405.5,-211 405.5,-552 405.5,-552 405.5,-558 399.5,-564 393.5,-564 393.5,-564 283.5,-564 283.5,-564 277.5,-564 271.5,-558 271.5,-552 271.5,-552 271.5,-211 271.5,-211 271.5,-205 277.5,-199 283.5,-199"/>
<text text-anchor="middle" x="338.5" y="-550.4" font-family="Sans-Serif" font-size="12.00" fill="#2d3436">Application: auth&#45;svc</text>
</a>
</g>
</g>
<!-- 559e6ce6b51e49278d68414a93eef921 -->
<g id="node1" class="node">
<title>559e6ce6b51e49278d68414a93eef921</title>
<g id="a_node1"><a xlink:title="kind: Namespace&#10;apiVersion: v1&#10;metadata:&#10; &#160;name: dev&#10;...">
<image xlink:href="https://raw.githubusercontent.com/mingrammer/diagrams/refs/heads/master/resources/k8s/group/ns.png" width="101px" height="101px" preserveAspectRatio="xMinYMin meet" x="0" y="-517"/>
<text text-anchor="middle" x="50.5" y="-401.6" font-family="Sans-Serif" font-size="13.00" fill="#2d3436">dev</text>
</a>
</g>
</g>
<!-- 7d506c57baeb4538b81379e167edfce4 -->
<g id="node2" class="node">
<title>7d506c57baeb4538b81379e167edfce4</title>
<g id="a_node2"><a xlink:title="kind: HTTPRoute&#10;apiVersion: gateway.networking.k8s.io/v1&#10;metadata:&#10; &#160;name: auth&#45;route&#10;...">
<image xlink:href="https://raw.githubusercontent.com/mingrammer/diagrams/refs/heads/master/resources/aws/enablement/managed-services.png" width="101px" height="101px" preserveAspectRatio="xMinYMin meet" x="144" y="-517"/>
<text text-anchor="middle" x="194.5" y="-401.6" font-family="Sans-Serif" font-size="13.00" fill="#2d3436">auth&#45;route</text>
</a>
</g>
</g>
<!-- 8127dcce28e64224861bcdd15f723917 -->
<g id="node3" class="node">
<title>8127dcce28e64224861bcdd15f723917</title>
<g id="a_node3"><a xlink:title="kind: ConfigMap&#10;apiVersion: v1&#10;metadata:&#10; &#160;name: auth&#45;cm&#10;...">
<image xlink:href="https://raw.githubusercontent.com/mingrammer/diagrams/refs/heads/master/resources/k8s/podconfig/cm.png" width="101px" height="101px" preserveAspectRatio="xMinYMin meet" x="144" y="-135"/>
<text text-anchor="middle" x="194.5" y="-19.6" font-family="Sans-Serif" font-size="13.00" fill="#2d3436">auth&#45;cm</text>
</a>
</g>
</g>
<!-- 7db023fc2ecf4db7a40c7da8c66a954d -->
<g id="node4" class="node">
<title>7db023fc2ecf4db7a40c7da8c66a954d</title>
<g id="a_node4"><a xlink:title="kind: Secret&#10;apiVersion: v1&#10;metadata:&#10; &#160;name: auth&#45;secret&#10;...">
<image xlink:href="https://raw.githubusercontent.com/mingrammer/diagrams/refs/heads/master/resources/k8s/podconfig/secret.png" width="101px" height="101px" preserveAspectRatio="xMinYMin meet" x="288" y="-135"/>
<text text-anchor="middle" x="338.5" y="-19.6" font-family="Sans-Serif" font-size="13.00" fill="#2d3436">auth&#45;secret</text>
</a>
</g>
</g>
<!-- 681e89696cf845338339fe6342952f7b -->
<g id="node5" class="node">
<title>681e89696cf845338339fe6342952f7b</title>
<g id="a_node5"><a xlink:title="kind: PersistentVolumeClaim&#10;apiVersion: v1&#10;metadata:&#10; &#160;name: auth&#45;pvc&#10;...">
<image xlink:href="https://raw.githubusercontent.com/mingrammer/diagrams/refs/heads/master/resources/k8s/storage/pvc.png" width="101px" height="101px" preserveAspectRatio="xMinYMin meet" x="432" y="-135"/>
<text text-anchor="middle" x="482.5" y="-19.6" font-family="Sans-Serif" font-size="13.00" fill="#2d3436">auth&#45;pvc</text>
</a>
</g>
</g>
<!-- bea14a092cd04a15bb12e3db72cca8bc -->
<g id="node6" class="node">
<title>bea14a092cd04a15bb12e3db72cca8bc</title>
<g id="a_node6"><a xlink:title="kind: Service&#10;apiVersion: v1&#10;metadata:&#10; &#160;name: auth&#45;svc&#10;...">
<image xlink:href="https://raw.githubusercontent.com/mingrammer/diagrams/refs/heads/master/resources/k8s/network/svc.png" width="101px" height="101px" preserveAspectRatio="xMinYMin meet" x="288" y="-517"/>
<text text-anchor="middle" x="338.5" y="-401.6" font-family="Sans-Serif" font-size="13.00" fill="#2d3436">auth&#45;svc</text>
</a>
</g>
</g>
<!-- a9fa129f13a04633a18aa08fcd3462d3 -->
<g id="node7" class="node">
<title>a9fa129f13a04633a18aa08fcd3462d3</title>
<g id="a_node7"><a xlink:title="kind: Deployment&#10;apiVersion: apps/v1&#10;metadata:&#10; &#160;name: auth&#45;svc&#10;...">
<image xlink:href="https://raw.githubusercontent.com/mingrammer/diagrams/refs/heads/master/resources/k8s/compute/deploy.png" width="101px" height="101px" preserveAspectRatio="xMinYMin meet" x="288" y="-326"/>
<text text-anchor="middle" x="338.5" y="-210.6" font-family="Sans-Serif" font-size="13.00" fill="#2d3436">auth&#45;svc</text>
</a>
</g>
</g>
<!-- bea14a092cd04a15bb12e3db72cca8bc&#45;&gt;a9fa129f13a04633a18aa08fcd3462d3 -->
<g id="edge1" class="edge">
<title>bea14a092cd04a15bb12e3db72cca8bc&#45;&gt;a9fa129f13a04633a18aa08fcd3462d3</title>
<g id="a_edge1"><a xlink:title="spec.selector:&#10; &#160;app: auth&#45;svc">
<path fill="none" stroke="black" stroke-dasharray="5,2" d="M338.5,-397.81C338.5,-397.81 338.5,-354.22 338.5,-354.22"/>
<polygon fill="black" stroke="black" points="342,-354.22 338.5,-344.22 335,-354.22 342,-354.22"/>
</a>
</g>
<text text-anchor="middle" x="321.5" y="-379.02" font-family="Sans-Serif" font-size="10.00" fill="#2d3436">80/TCP</text>
</g>
<!-- a9fa129f13a04633a18aa08fcd3462d3&#45;&gt;8127dcce28e64224861bcdd15f723917 -->
<g id="edge4" class="edge">
<title>a9fa129f13a04633a18aa08fcd3462d3&#45;&gt;8127dcce28e64224861bcdd15f723917</title>
<g id="a_edge4"><a xlink:title="spec.template.spec.containers:&#10;&#45; envFrom:&#10; &#160;&#45; configMapRef:&#10; &#160;&#160;&#160;&#160;&#160;name: auth&#45;cm&#10; &#160;&#45; secretRef:&#10; &#160;&#160;&#160;&#160;&#160;name: auth&#45;secret&#10; &#160;image: ghcr.io/corentin&#45;dupaigne/fullstack_project/auth:dev&#10; &#160;name: condensation&#45;auth&#10; &#160;volumeMounts:&#10; &#160;&#45; mountPath: /var/www/html/storage&#10; &#160;&#160;&#160;name: auth&#45;storage">
<path fill="none" stroke="black" d="M287.73,-275C246.27,-275 194.5,-275 194.5,-275 194.5,-275 194.5,-163.01 194.5,-163.01"/>
<polygon fill="black" stroke="black" points="198,-163.01 194.5,-153.01 191,-163.01 198,-163.01"/>
</a>
</g>
</g>
<!-- a9fa129f13a04633a18aa08fcd3462d3&#45;&gt;7db023fc2ecf4db7a40c7da8c66a954d -->
<g id="edge3" class="edge">
<title>a9fa129f13a04633a18aa08fcd3462d3&#45;&gt;7db023fc2ecf4db7a40c7da8c66a954d</title>
<g id="a_edge3"><a xlink:title="spec.template.spec.containers:&#10;&#45; envFrom:&#10; &#160;&#45; configMapRef:&#10; &#160;&#160;&#160;&#160;&#160;name: auth&#45;cm&#10; &#160;&#45; secretRef:&#10; &#160;&#160;&#160;&#160;&#160;name: auth&#45;secret&#10; &#160;image: ghcr.io/corentin&#45;dupaigne/fullstack_project/auth:dev&#10; &#160;name: condensation&#45;auth&#10; &#160;volumeMounts:&#10; &#160;&#45; mountPath: /var/www/html/storage&#10; &#160;&#160;&#160;name: auth&#45;storage">
<path fill="none" stroke="black" d="M338.5,-206.81C338.5,-206.81 338.5,-163.22 338.5,-163.22"/>
<polygon fill="black" stroke="black" points="342,-163.22 338.5,-153.22 335,-163.22 342,-163.22"/>
</a>
</g>
</g>
<!-- a9fa129f13a04633a18aa08fcd3462d3&#45;&gt;681e89696cf845338339fe6342952f7b -->
<g id="edge2" class="edge">
<title>a9fa129f13a04633a18aa08fcd3462d3&#45;&gt;681e89696cf845338339fe6342952f7b</title>
<g id="a_edge2"><a xlink:title="spec.template.spec.volumes[0].persistentVolumeClaim:&#10; &#160;claimName: auth&#45;pvc">
<path fill="none" stroke="black" d="M389.27,-275C430.73,-275 482.5,-275 482.5,-275 482.5,-275 482.5,-163.01 482.5,-163.01"/>
<polygon fill="black" stroke="black" points="486,-163.01 482.5,-153.01 479,-163.01 486,-163.01"/>
</a>
</g>
</g>
</g>
</svg>
